#!OML:ASF E:\Steps\Project 1\Capture day 1\Session 2\Subject.ASF
:FULLY-SPECIFIED
:DEGREES
57
root 9.20437 16.3168 17.8819 -153.747 -2.70029 179.95
lowerback -30.3305 -1.50712 -6.25811
upperback -2.68072 -0.788641 -0.187775
thorax 12.9273 -1.07525 2.79161
lowerneck 3.57688 -4.35972 -3.1694
upperneck -14.5372 -5.73466 9.65337
head -4.535 -3.56473 3.8035
rclavicle -1.00386e-014 9.54166e-015
rhumerus -33.0602 -20.3204 -80.6954
rradius 25.9562
rwrist 3.27882
rhand -10.9402 -52.0029
rfingers 7.12502
rthumb 15.0781 -81.4338
lclavicle -1.00386e-014 9.54166e-015
lhumerus -26.1532 5.08285 84.2782
lradius 16.8267
lwrist -14.543
lhand -22.2447 -13.0871
lfingers 7.12502
lthumb 4.17249 16.8517
rfemur -25.2999 9.11192 17.1462
rtibia 8.86132
rfoot -18.408 -5.39862
rtoes -33.8031
lfemur -24.2369 -8.30491 -18.4839
ltibia 7.99446
lfoot -8.53927 4.31521
ltoes -42.906
58
root 9.20592 16.3162 17.8814 -153.791 -2.70077 179.946
lowerback -30.3219 -1.50855 -6.25476
upperback -2.6694 -0.789269 -0.186925
thorax 12.9367 -1.07475 2.79081
lowerneck 3.62651 -4.36768 -3.24166
upperneck -14.5713 -5.74418 9.70941
head -4.5488 -3.57098 3.83578
rclavicle 1.00883e-014 -1.31198e-014
rhumerus -33.0724 -20.3311 -80.6889
rradius 25.9462
rwrist 3.33955
rhand -10.8263 -51.7023
rfingers 7.12502
rthumb 15.1878 -81.1249
lclavicle 1.00883e-014 -1.31198e-014
lhumerus -26.1765 5.20209 84.2588
lradius 16.8695
lwrist -14.5975
lhand -22.0446 -13.3568
lfingers 7.12502
lthumb 4.3657 16.5782
rfemur -25.2196 8.98992 17.1885
rtibia 8.82271
rfoot -18.4468 -5.19675
rtoes -33.8884
lfemur -24.1395 -8.35713 -18.4705
ltibia 7.90554
lfoot -8.49839 4.23663
ltoes -42.0681
59
root 9.2073 16.3152 17.8868 -153.721 -2.65708 179.956
lowerback -30.3313 -1.44039 -6.2225
upperback -2.73997 -0.721088 -0.243627
thorax 12.8523 -1.04393 2.73761
lowerneck 3.74268 -4.41225 -3.21209
upperneck -14.5976 -5.79352 9.77092
head -4.57204 -3.6025 3.85651
rclavicle 4.42296e-015 3.57812e-015
rhumerus -33.1926 -20.4546 -80.6622
rradius 25.9158
rwrist 3.38946
rhand -10.7095 -51.4465
rfingers 7.12502
rthumb 15.3003 -80.8606
lclavicle 4.42296e-015 3.57812e-015
lhumerus -26.259 4.90087 84.2967
lradius 16.8946
lwrist -14.4811
lhand -21.8976 -13.6268
lfingers 7.12502
lthumb 4.50762 16.3052
rfemur -25.3682 8.81228 17.2296
rtibia 8.90092
rfoot -18.3553 -5.03062
rtoes -34.0662
lfemur -24.231 -8.34676 -18.4367
ltibia 7.86131
lfoot -8.3833 4.15849
ltoes -41.4911
60
root 9.20716 16.3117 17.8992 -153.459 -2.47363 179.985
lowerback -30.468 -1.29755 -6.14166
upperback -2.86542 -0.57896 -0.335749
thorax 12.7535 -0.982866 2.64503
lowerneck 3.83491 -4.4669 -3.18441
upperneck -14.6222 -5.85643 9.85042
head -4.58906 -3.64208 3.88283
rclavicle -1.88845e-015 0
rhumerus -33.3455 -20.4488 -80.6955
rradius 26.0166
rwrist 3.26902
rhand -10.6515 -51.6177
rfingers 7.12502
rthumb 15.3562 -81.0274
lclavicle -1.88845e-015 0
lhumerus -26.3111 4.3885 84.3965
lradius 16.9187
lwrist -14.1983
lhand -22.0175 -13.6378
lfingers 7.12502
lthumb 4.39191 16.2967
rfemur -25.9378 8.81795 17.1575
rtibia 9.23756
rfoot -18.3404 -4.86355
rtoes -33.6439
lfemur -24.6757 -8.19293 -18.4341
ltibia 8.07842
lfoot -8.38432 4.25959
ltoes -42.123
61
root 9.21185 16.3177 17.8948 -153.775 -2.66174 179.872
lowerback -30.1898 -1.41924 -6.20568
upperback -2.77199 -0.699332 -0.345363
thorax 12.7497 -1.02904 2.62989
lowerneck 3.87894 -4.45283 -3.32413
upperneck -14.681 -5.83876 9.95146
head -4.60731 -3.63634 3.93997
rclavicle 5.76476e-015 -1.51076e-014
rhumerus -33.3493 -20.3744 -80.7064
rradius 26.0698
rwrist 3.31655
rhand -10.355 -51.4432
rfingers 7.12502
rthumb 15.6418 -80.8308
lclavicle 5.76476e-015 -1.51076e-014
lhumerus -26.2658 4.25123 84.4336
lradius 16.9219
lwrist -13.9895
lhand -22.0385 -13.2907
lfingers 7.12502
lthumb 4.37164 16.6442
rfemur -25.44 9.06243 17.0666
rtibia 9.05908
rfoot -18.3854 -5.29106
rtoes -33.384
lfemur -24.3404 -8.16631 -18.5842
ltibia 8.15301
lfoot -8.4031 4.05538
ltoes -42.7266
62
root 9.21433 16.3194 17.8942 -153.835 -2.75028 179.881
lowerback -30.1336 -1.47844 -6.17408
upperback -2.76482 -0.790334 -0.308803
thorax 12.7424 -1.06714 2.61885
lowerneck 3.99251 -4.42211 -3.47389
upperneck -14.7352 -5.79537 10.0502
head -4.63756 -3.61649 3.99929
rclavicle 5.76476e-015 -6.36111e-015
rhumerus -33.3567 -20.4301 -80.6035
rradius 26.0435
rwrist 3.50352
rhand -10.0708 -51.1039
rfingers 7.12502
rthumb 15.9155 -80.47
lclavicle 5.76476e-015 -6.36111e-015
lhumerus -26.2667 4.35779 84.4372
lradius 16.8674
lwrist -13.9358
lhand -21.9054 -12.8608
lfingers 7.12502
lthumb 4.50007 17.0714
rfemur -25.3001 9.09827 17.1058
rtibia 8.95081
rfoot -18.3957 -5.42187
rtoes -33.5541
lfemur -24.2428 -8.20637 -18.5309
ltibia 8.06712
lfoot -8.36791 3.99083
ltoes -42.513
63
root 9.2172 16.3207 17.8979 -153.806 -2.8371 179.887
lowerback -30.0968 -1.50951 -6.16733
upperback -2.8106 -0.846983 -0.282058
thorax 12.6796 -1.09303 2.62297
lowerneck 4.11795 -4.42158 -3.56505
upperneck -14.785 -5.79103 10.1162
head -4.66902 -3.61614 4.04053
rclavicle 8.44835e-015 -2.0276e-014
rhumerus -33.4025 -20.4566 -80.5402
rradius 26.0401
rwrist 3.56608
rhand -10.0474 -51.4359
rfingers 7.12502
rthumb 15.938 -80.8001
lclavicle 8.44835e-015 -2.0276e-014
lhumerus -26.2925 4.50843 84.4174
lradius 16.7986
lwrist -13.9515
lhand -21.7057 -12.7697
lfingers 7.12502
lthumb 4.6929 17.1584
rfemur -25.1858 9.2273 17.0866
rtibia 8.64861
rfoot -18.1961 -5.54958
rtoes -33.4746
lfemur -24.2921 -8.23512 -18.4727
ltibia 8.01876
lfoot -8.30443 3.9304
ltoes -42.521
64
root 9.21833 16.3199 17.8969 -153.819 -2.83378 179.944
lowerback -30.1334 -1.48192 -6.07248
upperback -2.80317 -0.839332 -0.282592
thorax 12.7039 -1.08538 2.57351
lowerneck 4.18572 -4.42645 -3.6385
upperneck -14.8386 -5.79656 10.1773
head -4.69188 -3.62192 4.07603
rclavicle -8.49804e-015 1.43125e-014
rhumerus -33.4158 -20.4668 -80.5415
rradius 26.0403
rwrist 3.61205
rhand -10.0078 -51.7574
rfingers 7.12502
rthumb 15.9761 -81.1186
lclavicle -8.49804e-015 1.43125e-014
lhumerus -26.259 4.60994 84.356
lradius 16.7381
lwrist -14.0151
lhand -21.576 -12.8052
lfingers 7.12502
lthumb 4.81817 17.12
rfemur -25.317 9.32629 17.1409
rtibia 8.93856
rfoot -18.2513 -5.55003
rtoes -33.1492
lfemur -24.2907 -8.26198 -18.3919
ltibia 8.04877
lfoot -8.31331 4.01597
ltoes -42.7163
65
root 9.21993 16.3197 17.8977 -153.814 -2.87429 179.994
lowerback -30.173 -1.48614 -6.02009
upperback -2.80054 -0.862228 -0.264185
thorax 12.7268 -1.09421 2.5555
lowerneck 4.24338 -4.43016 -3.67262
upperneck -14.8956 -5.80095 10.2103
head -4.71649 -3.62755 4.09615
rclavicle 2.83268e-015 -3.97569e-016
rhumerus -33.4015 -20.4633 -80.5371
rradius 26.0258
rwrist 3.6183
rhand -10.0367 -51.8031
rfingers 7.12502
rthumb 15.9483 -81.1665
lclavicle 2.83268e-015 -3.97569e-016
lhumerus -26.2178 4.70823 84.3053
lradius 16.6458
lwrist -14.0947
lhand -21.567 -12.8624
lfingers 7.12502
lthumb 4.82688 17.0626
rfemur -25.3493 9.4324 17.1822
rtibia 8.98397
rfoot -18.2047 -5.63534
rtoes -32.904
lfemur -24.3436 -8.2816 -18.3075
ltibia 8.12435
lfoot -8.3523 4.016
ltoes -42.473
